<svg xmlns="http://www.w3.org/2000/svg" viewBox="0 0 120 120">
  <rect width="120" height="120" fill="#f8fafc"/>
  <rect x="8" y="8" width="32" height="32" fill="#0f172a" rx="2"/>
  <rect x="16" y="16" width="16" height="16" fill="#f8fafc"/>
  <rect x="24" y="24" width="4" height="4" fill="#0f172a"/>
  <rect x="80" y="8" width="32" height="32" fill="#0f172a" rx="2"/>
  <rect x="88" y="16" width="16" height="16" fill="#f8fafc"/>
  <rect x="96" y="24" width="4" height="4" fill="#0f172a"/>
  <rect x="8" y="80" width="32" height="32" fill="#0f172a" rx="2"/>
  <rect x="16" y="88" width="16" height="16" fill="#f8fafc"/>
  <rect x="24" y="96" width="4" height="4" fill="#0f172a"/>
  <rect x="50" y="50" width="10" height="10" fill="#0f172a"/>
  <rect x="70" y="50" width="6" height="6" fill="#0f172a"/>
  <rect x="58" y="70" width="8" height="8" fill="#0f172a"/>
  <rect x="74" y="72" width="12" height="12" fill="#0f172a"/>
  <rect x="92" y="56" width="10" height="10" fill="#0f172a"/>
  <rect x="50" y="90" width="6" height="6" fill="#0f172a"/>
  <rect x="62" y="88" width="10" height="10" fill="#0f172a"/>
  <rect x="78" y="92" width="8" height="8" fill="#0f172a"/>
</svg>
